<svg width="145" height="119" viewBox="0 0 145 119" fill="none" xmlns="http://www.w3.org/2000/svg">
<path d="M62.9976 75.4783C60.4351 75.4785 58.1247 73.9356 57.1429 71.5688L35.2851 18.8023C33.9478 15.5737 35.4808 11.8723 38.7092 10.5346L61.6031 1.05274C63.1534 0.410294 64.8954 0.41015 66.4458 1.05234C67.9961 1.69452 69.2278 2.92641 69.8698 4.47689L91.7276 57.2455C93.0627 60.4732 91.5301 64.1723 88.3035 65.51L65.4096 74.9962C64.6451 75.3138 63.8254 75.4777 62.9976 75.4783ZM64.0249 3.97516C63.6412 3.97579 63.2615 4.05218 62.9074 4.19996L40.0124 13.6818C39.2968 13.9782 38.7282 14.5469 38.4318 15.2626C38.1355 15.9783 38.1357 16.7824 38.4323 17.498L60.2902 70.2677C60.9089 71.7566 62.6159 72.4639 64.1064 71.8489L87.0003 62.3606C87.716 62.0641 88.2845 61.4955 88.5809 60.7798C88.8772 60.0641 88.877 59.26 88.5804 58.5444L66.7225 5.78009C66.2701 4.68908 65.206 3.97713 64.0249 3.97516Z" fill="#212121"/>
<g style="mix-blend-mode:multiply" opacity="0.5">
<path d="M71.313 7.95654L68.1655 9.26025L76.8198 30.1536L79.9673 28.8499L71.313 7.95654Z" fill="#212121"/>
</g>
<g style="mix-blend-mode:multiply" opacity="0.5">
<path d="M87.1262 55.04L90.2737 53.7363L80.4773 30.0858L77.3299 31.3895L87.1262 55.04Z" fill="#212121"/>
</g>
<path d="M83.1515 39.3632C76.604 42.0782 71.1371 45.8206 67.5577 50.3318L58.3289 28.0428C62.5385 23.1519 67.8968 19.383 73.9227 17.0742C80.4702 14.3592 87.085 13.0452 92.705 13.8108L101.936 36.0987C95.5008 35.6141 89.0459 36.7359 83.1515 39.3632Z" fill="#212121"/>
<g style="mix-blend-mode:multiply" opacity="0.25">
<path opacity="0.9" d="M83.1515 39.3632C76.604 42.0782 71.1371 45.8206 67.5577 50.3318L58.3289 28.0428C62.5385 23.1519 67.8968 19.383 73.9227 17.0742C80.4702 14.3592 87.085 13.0452 92.705 13.8108L101.936 36.0987C95.5008 35.6141 89.0459 36.7359 83.1515 39.3632Z" fill="#212121"/>
<path opacity="0.7" d="M83.1515 39.3632C76.604 42.0782 71.1371 45.8206 67.5577 50.3318L58.3289 28.0428C62.5385 23.1519 67.8968 19.383 73.9227 17.0742C80.4702 14.3592 87.085 13.0452 92.705 13.8108L101.936 36.0987C95.5008 35.6141 89.0459 36.7359 83.1515 39.3632Z" fill="#212121"/>
</g>
<path d="M86.1588 46.1586C79.0716 46.1586 72.5838 47.528 67.5557 50.3234V27.7868C73.3163 24.8798 79.7086 23.4487 86.1588 23.622C93.246 23.622 99.8608 24.936 104.761 27.7922V50.3288C99.0013 47.4195 92.6092 45.9865 86.1588 46.1586Z" fill="#212121"/>
<path d="M0.0479548 112.306L5.78202 94.1804C5.84219 93.9293 6.05685 93.7453 6.31416 93.7243H9.19206C9.45004 93.7605 9.66712 93.9358 9.75677 94.1804L14.2202 105.616C14.3071 105.844 14.5352 105.866 14.6112 105.616L19.0529 94.1804C19.1426 93.9358 19.3597 93.7605 19.6176 93.7243H22.4955C22.7528 93.7453 22.9675 93.9293 23.0277 94.1804L28.6423 112.306C28.7083 112.445 28.6953 112.609 28.6081 112.737C28.5209 112.864 28.3727 112.936 28.2187 112.925H24.8196C24.577 112.936 24.3617 112.771 24.3091 112.534L20.6819 100.762C20.6276 100.533 20.367 100.533 20.291 100.762L15.947 112.447C15.873 112.728 15.6188 112.924 15.3279 112.925H13.3514C13.0631 112.931 12.8118 112.729 12.7541 112.447L8.32326 100.762C8.23638 100.533 8.00832 100.533 7.95402 100.762L4.22905 112.534C4.1712 112.777 3.94605 112.942 3.69691 112.925H0.438914C0.288213 112.93 0.145968 112.855 0.0654419 112.728C-0.0150843 112.6 -0.0217446 112.439 0.0479548 112.306ZM29.7609 105.844C29.6991 102.756 31.5116 99.9379 34.3468 98.7132C37.182 97.4885 40.4764 98.1009 42.6822 100.263C44.888 102.424 45.5667 105.706 44.3995 108.565C43.2324 111.424 40.4513 113.293 37.3628 113.294C35.3529 113.362 33.4027 112.605 31.9663 111.197C30.53 109.789 29.733 107.855 29.7609 105.844ZM41.0552 105.844C41.1621 104.445 40.4764 103.105 39.2798 102.373C38.0832 101.641 36.5773 101.641 35.3807 102.373C34.1841 103.105 33.4984 104.445 33.6053 105.844C33.4984 107.243 34.1841 108.583 35.3807 109.315C36.5773 110.048 38.0832 110.048 39.2798 109.315C40.4764 108.583 41.1621 107.243 41.0552 105.844ZM51.6654 111.774C51.3831 111.546 51.1333 111.632 51.1333 112.023V112.425C51.1335 112.711 50.9083 112.946 50.6229 112.957H47.973C47.6839 112.946 47.452 112.714 47.4409 112.425V94.2673C47.452 93.9781 47.6839 93.7463 47.973 93.7351H50.7641C51.0494 93.7468 51.2747 93.9817 51.2745 94.2673V99.3932C51.2745 99.7624 51.5243 99.871 51.9261 99.5887C52.995 98.788 54.2938 98.3538 55.6293 98.3506C59.4955 98.3506 62.4603 101.609 62.4603 105.801C62.5515 107.717 61.8649 109.589 60.5562 110.991C59.2476 112.394 57.4278 113.209 55.5099 113.251C54.0905 113.247 52.722 112.721 51.6654 111.774ZM58.6158 105.844C58.6903 104.463 57.9961 103.154 56.8112 102.441C55.6263 101.729 54.1446 101.729 52.9597 102.441C51.7747 103.154 51.0805 104.463 51.155 105.844C51.1169 106.858 51.4878 107.844 52.1843 108.581C52.8807 109.318 53.8442 109.745 54.8583 109.764C55.877 109.745 56.8459 109.32 57.5509 108.584C58.2559 107.849 58.6391 106.863 58.6158 105.844ZM64.7951 95.0492C64.7951 93.8496 65.7676 92.8772 66.9671 92.8772C68.1667 92.8772 69.1391 93.8496 69.1391 95.0492C69.1391 96.2488 68.1667 97.2212 66.9671 97.2212C65.7676 97.2212 64.7951 96.2488 64.7951 95.0492ZM64.9906 112.425V99.2846C64.9904 98.999 65.2157 98.7641 65.501 98.7524H68.2921C68.5812 98.7636 68.8131 98.9954 68.8242 99.2846V112.425C68.8131 112.714 68.5812 112.946 68.2921 112.957H65.501C65.2199 112.94 65.001 112.707 65.0015 112.425H64.9906ZM71.9845 108.081V94.2673C71.9842 93.9817 72.2095 93.7468 72.4949 93.7351H75.2859C75.575 93.7463 75.8069 93.9781 75.818 94.2673V108.211C75.818 109.113 76.209 109.71 77.1972 109.71C77.4911 109.71 77.7294 109.948 77.7294 110.242V112.555C77.7177 112.841 77.4829 113.066 77.1972 113.066C73.4831 113.066 71.9845 111.85 71.9845 108.081ZM78.7611 105.909C78.7611 103.286 80.1603 100.863 82.4318 99.5514C84.7032 98.24 87.5017 98.24 89.7731 99.5514C92.0445 100.863 93.4438 103.286 93.4438 105.909C93.4438 106.42 93.3026 106.843 92.7922 106.843H83.0834C82.8336 106.843 82.7467 106.984 82.7684 107.212C83.009 108.9 84.51 110.117 86.211 110.003C87.2416 110.017 88.2247 109.571 88.8934 108.787C89.1006 108.496 89.4376 108.325 89.7948 108.331H92.3578C92.8139 108.331 93.0094 108.646 92.8356 109.091C91.3131 112.195 87.8527 113.841 84.484 113.064C81.1152 112.286 78.726 109.29 78.7176 105.833L78.7611 105.909ZM89.0672 104.606C89.2627 104.606 89.3496 104.519 89.317 104.291C89.0211 102.732 87.6453 101.613 86.059 101.641C84.5089 101.644 83.1622 102.708 82.801 104.215C82.7467 104.41 82.801 104.606 83.0291 104.606H89.0672ZM95.7895 112.425V94.2673C95.7893 93.9817 96.0146 93.7468 96.2999 93.7351H105.194C109.256 93.7351 112.025 96.1026 112.025 100.088C112.025 104.074 108.887 106.528 104.999 106.528H100.286C100.142 106.513 100 106.565 99.9002 106.669C99.8004 106.773 99.7542 106.918 99.7751 107.06V112.425C99.764 112.714 99.5322 112.946 99.243 112.957H96.3108C96.0212 112.951 95.7895 112.715 95.7895 112.425ZM104.999 103.281C105.817 103.27 106.596 102.932 107.163 102.342C107.731 101.752 108.038 100.96 108.018 100.143C108.052 99.3318 107.745 98.5439 107.171 97.9702C106.597 97.3964 105.809 97.0893 104.999 97.1235H100.253C99.9163 97.1235 99.7751 97.2972 99.7751 97.6339V102.771C99.7751 103.107 99.9163 103.281 100.253 103.281H104.999ZM113.35 105.844C113.277 103.923 113.977 102.054 115.294 100.653C116.61 99.253 118.433 98.4392 120.355 98.3941C121.741 98.4016 123.078 98.9153 124.112 99.8384C124.362 100.067 124.644 100.034 124.644 99.6973V99.2737C124.644 98.9918 124.873 98.7633 125.155 98.7633H127.805C128.094 98.7744 128.326 99.0063 128.337 99.2954V108.646C128.337 109.352 128.587 109.667 129.075 109.732C129.329 109.737 129.536 109.935 129.553 110.188V112.642C129.553 112.906 129.339 113.12 129.075 113.12C127.207 113.12 126.111 112.588 125.492 111.513C125.318 111.231 125.122 111.176 124.84 111.459C123.647 112.687 122.002 113.37 120.29 113.348C118.368 113.292 116.549 112.465 115.244 111.054C113.938 109.642 113.256 107.764 113.35 105.844ZM124.644 105.844C124.751 104.449 124.068 103.112 122.874 102.382C121.681 101.652 120.18 101.652 118.986 102.382C117.793 103.112 117.11 104.449 117.216 105.844C117.11 107.239 117.793 108.576 118.986 109.306C120.18 110.036 121.681 110.036 122.874 109.306C124.068 108.576 124.751 107.239 124.644 105.844ZM130.911 117.855V115.564C130.922 115.278 131.157 115.053 131.443 115.053C133.261 115.193 134.939 114.072 135.504 112.338C135.6 111.975 135.561 111.589 135.396 111.252L130.205 99.5018C130.115 99.342 130.118 99.1464 130.212 98.9893C130.306 98.8321 130.478 98.7376 130.661 98.7416H133.452C133.734 98.7416 133.908 98.9696 134.017 99.252L137.275 106.767C137.503 107.364 137.872 107.332 138.122 106.767L141.228 99.2303C141.336 98.9479 141.477 98.7742 141.76 98.7742H144.486C144.653 98.7654 144.813 98.8428 144.91 98.9794C145.007 99.1159 145.027 99.2926 144.964 99.4475L139.631 112.121C137.687 116.726 135.624 118.442 131.497 118.442C131.339 118.451 131.184 118.393 131.072 118.28C130.96 118.168 130.901 118.013 130.911 117.855Z" fill="#212121"/>
</svg>
