<svg width="16" height="17" viewBox="0 0 16 17" fill="none" xmlns="http://www.w3.org/2000/svg">
<path d="M3.14667 2.68256C3.2 3.47367 3.33333 4.24701 3.54667 4.98479L2.48 6.05145C2.11556 4.98479 1.88444 3.8559 1.80444 2.68256H3.14667ZM11.9111 13.367C12.6667 13.5803 13.44 13.7137 14.2222 13.767V15.0915C13.0489 15.0115 11.92 14.7803 10.8444 14.4248L11.9111 13.367ZM4 0.904785H0.888889C0.4 0.904785 0 1.30479 0 1.79367C0 10.1403 6.76444 16.9048 15.1111 16.9048C15.6 16.9048 16 16.5048 16 16.0159V12.9137C16 12.4248 15.6 12.0248 15.1111 12.0248C14.0089 12.0248 12.9333 11.847 11.9378 11.5181C11.8489 11.4826 11.7511 11.4737 11.6622 11.4737C11.4311 11.4737 11.2089 11.5626 11.0311 11.7315L9.07556 13.687C6.56 12.3981 4.49778 10.3448 3.21778 7.82923L5.17333 5.87367C5.42222 5.62479 5.49333 5.27812 5.39556 4.96701C5.06667 3.97145 4.88889 2.90479 4.88889 1.79367C4.88889 1.30479 4.48889 0.904785 4 0.904785Z" fill="#212121"/>
</svg>
